<?xml version="1.0" encoding="UTF-8" standalone="no"?>
<!DOCTYPE svg PUBLIC "-//W3C//DTD SVG 1.1//EN" "http://www.w3.org/Graphics/SVG/1.1/DTD/svg11.dtd">
<svg version="1.1" xmlns="http://www.w3.org/2000/svg" xmlns:xlink="http://www.w3.org/1999/xlink" preserveAspectRatio="xMidYMid meet" viewBox="0 0 640 640" width="640" height="640"><defs><path d="M544.19 145.27L544.19 247.55L61.21 247.55L163.49 145.27L544.19 145.27ZM163.49 145.27L265.77 42.99L265.77 145.27L163.49 145.27Z" id="a2eeeyB2T"></path><path d="M441.91 504.21L339.63 606.5L339.63 504.21L61.21 504.21L61.21 401.93L544.19 401.93L441.91 504.21L441.91 504.21Z" id="b2nc7CbmaD"></path><path d="M368.49 324.21C368.49 360.52 339.01 390 302.7 390C266.39 390 236.91 360.52 236.91 324.21C236.91 287.9 266.39 258.42 302.7 258.42C339.01 258.42 368.49 287.9 368.49 324.21Z" id="fmxxyzb3"></path></defs><g><g><g><use xlink:href="#a2eeeyB2T" opacity="1" fill="#10180e" fill-opacity="1"></use></g><g><use xlink:href="#b2nc7CbmaD" opacity="1" fill="#10180e" fill-opacity="1"></use></g><g><use xlink:href="#fmxxyzb3" opacity="1" fill="#10180e" fill-opacity="1"></use></g></g></g></svg>